<?xml version="1.0" standalone="no"?>
<!DOCTYPE svg PUBLIC "-//W3C//DTD SVG 20010904//EN"
 "http://www.w3.org/TR/2001/REC-SVG-20010904/DTD/svg10.dtd">
<svg version="1.0" xmlns="http://www.w3.org/2000/svg"
 width="284.000000pt" height="284.000000pt" viewBox="0 0 284.000000 284.000000"
 preserveAspectRatio="xMidYMid meet">

<g transform="translate(0.000000,284.000000) scale(0.100000,-0.100000)"
fill="#C04000" stroke="none">
<path d="M1310 2040 c-434 -3 -784 -9 -795 -14 -93 -43 -114 -90 -115 -253 l0
-123 195 0 195 0 0 104 c0 94 2 108 23 131 29 35 78 44 220 45 l117 0 0 -140
0 -140 195 0 194 0 3 138 3 137 95 3 c135 5 194 -4 230 -35 30 -25 30 -25 30
-136 0 -62 4 -118 9 -125 7 -11 64 -13 302 -10 162 2 302 8 312 12 12 6 17 20
17 52 0 57 -17 64 -151 64 l-99 0 0 95 c0 144 -25 177 -147 193 -32 4 -407 5
-833 2z m1044 -323 c11 -8 17 -23 14 -38 -2 -20 -9 -25 -40 -27 -37 -3 -38 -2
-38 31 0 18 3 37 7 40 10 11 38 8 57 -6z"/>
<path d="M382 1488 l3 -63 31 3 c30 3 31 2 38 -44 3 -26 6 -69 6 -95 l0 -49
49 0 50 0 5 43 c4 23 7 65 9 92 2 48 3 50 32 50 29 0 30 2 35 55 3 30 4 58 2
63 -2 4 -62 7 -133 7 l-130 0 3 -62z"/>
<path d="M669 1543 c-3 -24 2 -206 7 -250 l6 -53 93 0 c88 0 93 1 99 23 3 12
6 24 6 27 0 3 -18 4 -40 2 -37 -4 -40 -2 -40 22 0 23 4 26 34 26 28 0 34 4 38
25 5 23 2 25 -33 25 -33 0 -39 3 -39 21 0 19 4 21 39 16 l39 -5 4 57 c2 31 3
59 1 64 -3 4 -51 7 -109 7 -57 0 -104 -3 -105 -7z"/>
<path d="M914 1483 c3 -38 8 -107 12 -155 l6 -88 28 0 c31 0 40 14 40 66 0 19
2 34 5 34 3 0 39 -23 80 -50 l75 -51 0 64 c0 35 3 105 6 155 l7 92 -36 0 c-34
0 -36 -2 -39 -37 l-3 -38 -41 38 c-37 33 -47 37 -94 37 l-52 0 6 -67z"/>
<path d="M1257 1543 c-3 -5 -12 -45 -21 -90 -10 -45 -26 -111 -36 -147 l-19
-66 30 0 c18 0 32 6 36 16 6 16 7 16 18 0 11 -14 17 -15 41 -4 22 10 28 10 32
0 5 -15 112 -17 112 -1 0 5 -13 63 -29 127 -16 64 -32 129 -35 145 -6 26 -9
27 -66 27 -32 0 -61 -3 -63 -7z m53 -203 c14 -35 13 -37 -17 -42 -25 -3 -27 1
-18 42 8 38 19 38 35 0z"/>
<path d="M1473 1475 c4 -43 7 -113 7 -157 l0 -78 83 0 c128 0 185 40 195 138
6 63 -18 114 -66 144 -29 18 -55 23 -131 26 l-94 5 6 -78z m193 -80 c12 -18
14 -31 7 -52 -10 -28 -52 -58 -64 -45 -4 4 -4 33 -2 65 5 47 9 57 24 57 10 0
26 -11 35 -25z"/>
<path d="M1811 1408 c-18 -79 -36 -148 -38 -155 -4 -9 5 -13 25 -13 19 0 32 6
37 18 6 16 7 16 20 -1 12 -17 15 -17 38 -2 22 14 25 14 30 0 5 -11 21 -15 63
-15 54 0 56 1 50 23 -3 12 -20 82 -37 155 l-32 132 -61 0 -61 0 -34 -142z m82
-55 c2 -10 8 -25 11 -34 6 -13 0 -18 -23 -21 -35 -5 -35 -4 -20 41 12 35 24
40 32 14z"/>
<path d="M2063 1444 c4 -59 7 -129 7 -156 l0 -48 39 0 40 0 3 45 3 45 35 -44
c19 -25 38 -45 42 -46 4 0 22 21 40 46 l33 47 3 -47 3 -46 40 0 39 0 0 73 c0
39 3 109 7 155 l6 82 -54 0 -54 0 -27 -50 c-16 -28 -31 -50 -35 -50 -5 0 -19
21 -33 48 l-25 47 -59 3 -59 3 6 -107z"/>
<path d="M1150 980 l0 -190 195 0 195 0 0 190 0 190 -195 0 -195 0 0 -190z"/>
</g>
</svg>