<?xml version="1.0" encoding="UTF-8" standalone="yes"?>
<svg version="1.0" xmlns="http://www.w3.org/2000/svg" width="534.000000pt" height="540.000000pt" viewBox="0 0 534.000000 540.000000" preserveAspectRatio="xMidYMid meet">
  <g transform="translate(0.000000,540.000000) scale(0.100000,-0.100000)" fill="#000000" stroke="none">
    <path d="M2385 5299 c-476 -49 -909 -221 -1298 -516 -129 -98 -369 -338 -469&#xA;-469 -283 -372 -455 -784 -525 -1259 -23 -159 -23 -550 0 -710 21 -149 61&#xA;-327 104 -460 397 -1238 1627 -1989 2879 -1760 724 134 1346 569 1734 1216&#xA;173 287 292 623 346 974 26 167 27 600 1 760 -96 604 -351 1103 -768 1510&#xA;-397 387 -864 618 -1414 701 -122 18 -467 26 -590 13z m411 -59 c595 -48 1113&#xA;-279 1530 -682 432 -418 683 -912 770 -1513 24 -159 24 -532 1 -690 -163&#xA;-1138 -999 -2005 -2102 -2180 -138 -22 -464 -31 -606 -16 -699 73 -1315 423&#xA;-1743 990 -265 352 -431 764 -492 1221 -20 152 -23 472 -5 615 74 587 307&#xA;1087 699 1496 209 218 425 376 707 514 395 195 820 278 1241 245z"/>
    <path d="M2490 5104 c0 -3 25 -40 55 -82 52 -72 55 -80 55 -134 0 -58 0 -58&#xA;30 -58 30 0 30 0 30 56 0 59 6 70 98 192 l24 32 -38 0 c-36 0 -42 -4 -75 -57&#xA;l-37 -56 -37 57 c-34 50 -42 56 -71 56 -19 0 -34 -3 -34 -6z"/>
    <path d="M2275 5086 c-59 -8 -80 -15 -80 -26 0 -56 31 -253 40 -256 11 -5 225&#xA;23 232 30 2 2 0 11 -3 21 -6 15 -16 17 -73 11 -36 -4 -76 -9 -88 -13 -21 -5&#xA;-23 -2 -23 35 l0 41 48 6 c92 12 102 16 102 36 0 21 -28 24 -112 10 -49 -8&#xA;-58 -2 -58 39 0 14 11 19 58 24 98 11 112 16 112 37 0 22 -27 23 -155 5z"/>
    <path d="M2853 5068 c-13 -13 -23 -35 -23 -47 0 -32 47 -73 108 -94 55 -19 69&#xA;-38 46 -62 -31 -31 -98 -13 -114 31 -7 18 -17 24 -40 24 -33 0 -35 -5 -20 -44&#xA;29 -78 202 -98 239 -28 29 54 -3 100 -90 132 -62 24 -83 45 -58 61 25 16 59 9&#xA;85 -16 26 -26 74 -37 81 -18 2 6 -9 26 -25 44 -27 30 -36 34 -98 37 -63 3 -71&#xA;2 -91 -20z"/>
    <path d="M2048 5043 c-15 -4 -15 -9 3 -71 11 -37 22 -78 26 -91 5 -20 -10 -12&#xA;-82 48 -74 61 -92 71 -114 66 -14 -4 -28 -8 -30 -11 -5 -5 58 -237 69 -254 5&#xA;-9 16 -10 33 -4 l24 9 -23 80 c-12 44 -21 81 -19 83 2 3 40 -26 84 -63 72 -59&#xA;84 -66 111 -60 35 8 35 13 14 86 -59 206 -53 194 -96 182z"/>
    <path d="M3325 4970 c-13 -14 -16 -28 -11 -55 6 -33 5 -35 -19 -35 -33 0 -75&#xA;-41 -75 -73 0 -38 36 -75 90 -91 27 -8 58 -12 69 -9 14 4 27 -2 40 -18 17 -21&#xA;21 -22 46 -11 26 12 26 14 11 31 -20 22 -20 28 -1 47 20 20 19 31 -4 44 -13 7&#xA;-22 7 -26 0 -11 -18 -23 -11 -33 18 -9 27 -8 30 24 41 35 13 52 45 40 76 -8&#xA;23 -68 55 -102 55 -18 0 -38 -8 -49 -20z m95 -35 c10 -12 10 -18 0 -30 -17&#xA;-21 -37 -19 -45 5 -12 37 20 55 45 25z m-59 -134 c10 -22 14 -42 11 -45 -10&#xA;-11 -48 -6 -70 10 -26 18 -28 37 -6 58 26 27 48 19 65 -23z"/>
    <path d="M1654 4905 c-53 -20 -122 -52 -132 -60 -2 -2 22 -59 54 -129 l57&#xA;-125 27 14 28 15 -21 50 c-18 44 -19 52 -7 60 25 16 51 11 107 -21 49 -28 57&#xA;-30 83 -19 17 7 30 16 30 21 0 11 -94 59 -115 59 -14 0 -13 4 4 26 39 49 22&#xA;112 -34 127 -11 3 -47 -5 -81 -18z m71 -65 c0 -20 -10 -30 -47 -50 -50 -26&#xA;-60 -24 -72 17 -6 18 0 25 31 42 52 28 88 24 88 -9z"/>
    <path d="M3685 4704 c-37 -63 -66 -116 -64 -118 29 -19 183 -106 189 -106 7 0&#xA;20 23 20 35 0 2 -30 21 -66 41 -44 25 -63 41 -60 51 3 7 28 52 56 99 48 81 50&#xA;87 33 100 -10 7 -23 14 -30 14 -6 0 -41 -52 -78 -116z"/>
    <path d="M1353 4749 c-42 -12 -109 -76 -118 -112 -24 -93 67 -197 157 -181 43&#xA;9 91 38 123 75 52 63 19 182 -61 215 -38 16 -55 16 -101 3z m79 -61 c56 -46&#xA;64 -113 17 -152 -51 -43 -111 -29 -144 34 -22 43 -18 68 14 101 32 32 84 39&#xA;113 17z"/>
    <path d="M2576 4671 c-23 -24 -27 -35 -21 -58 18 -71 17 -104 -4 -152 -11 -27&#xA;-20 -68 -19 -94 0 -37 -10 -65 -54 -149 -75 -140 -77 -153 -38 -234 17 -36 29&#xA;-72 26 -80 -15 -40 -112 -44 -196 -9 -75 31 -121 31 -224 0 -83 -25 -247 -55&#xA;-302 -55 -50 0 -129 28 -169 60 -45 36 -93 39 -140 10 -30 -19 -65 -72 -65&#xA;-100 0 -28 36 -84 64 -101 50 -31 88 -25 142 22 26 22 58 45 71 50 49 18 169&#xA;9 338 -26 94 -19 180 -35 193 -35 17 0 22 -6 22 -24 0 -55 11 -56 426 -56 356&#xA;0 382 1 397 18 10 10 17 28 17 40 0 17 6 22 28 22 15 0 63 9 107 19 145 34&#xA;350 64 391 57 26 -5 53 -23 88 -57 41 -40 56 -49 85 -49 62 0 131 64 131 120&#xA;0 36 -34 86 -71 106 -42 21 -85 14 -140 -25 -83 -58 -250 -60 -422 -4 -111 36&#xA;-213 38 -279 4 -81 -41 -199 -13 -182 43 4 12 17 37 30 56 36 52 31 88 -31&#xA;219 -30 64 -59 141 -65 171 -6 30 -16 77 -22 103 -6 27 -7 76 -3 111 6 61 5&#xA;64 -21 85 -36 28 -55 27 -88 -8z m-101 -901 c90 -26 194 -26 303 1 95 23 137&#xA;18 216 -24 l41 -22 -207 -3 c-115 -1 -301 -1 -415 0 l-208 3 35 19 c43 24 107&#xA;44 140 45 14 1 57 -8 95 -19z"/>
    <path d="M3931 4565 c-44 -58 -81 -109 -80 -113 0 -4 43 -40 94 -79 91 -70 95&#xA;-72 106 -52 6 13 7 24 2 28 -46 32 -123 95 -123 101 0 4 9 19 21 34 l21 26 62&#xA;-49 c48 -38 66 -47 74 -39 20 20 13 32 -48 77 -48 37 -57 48 -49 62 20 39 24&#xA;38 121 -36 45 -34 47 -35 57 -16 10 17 1 27 -72 83 -45 36 -87 67 -93 71 -6 4&#xA;-45 -38 -93 -98z"/>
    <path d="M1079 4554 c-129 -110 -133 -115 -116 -131 14 -14 19 -13 47 11 17&#xA;14 35 26 39 26 4 0 40 -38 81 -85 l73 -86 23 22 23 22 -32 38 c-18 20 -51 59&#xA;-74 87 l-42 49 34 33 c27 26 32 37 24 47 -16 19 -20 18 -80 -33z"/>
    <path d="M4200 4397 c-66 -35 -95 -105 -71 -170 16 -41 74 -99 118 -119 48&#xA;-21 61 -17 105 29 l28 29 -50 49 c-42 42 -51 46 -65 35 -14 -12 -13 -16 10&#xA;-40 23 -24 24 -28 10 -40 -14 -12 -22 -11 -50 4 -35 19 -55 52 -55 92 0 38 59&#xA;94 100 94 42 0 90 -47 90 -88 0 -37 36 -74 50 -52 30 46 -22 145 -94 179 -54&#xA;27 -73 26 -126 -2z"/>
    <path d="M884 4376 c-10 -14 -46 -55 -78 -91 -54 -61 -58 -67 -43 -82 14 -15&#xA;18 -13 42 15 30 35 46 40 65 17 7 -9 43 -43 81 -76 l68 -60 17 26 17 27 -84&#xA;78 -84 78 33 34 c25 26 29 37 20 46 -18 18 -32 15 -54 -12z"/>
    <path d="M646 4086 c-9 -14 -16 -29 -16 -33 0 -12 145 -253 152 -253 4 0 15&#xA;11 23 24 14 21 14 26 -1 53 -17 28 -16 30 17 81 33 51 35 52 71 46 32 -5 39&#xA;-2 54 21 9 14 15 27 13 29 -2 1 -62 13 -134 25 -71 12 -137 25 -146 27 -10 3&#xA;-23 -6 -33 -20z m146 -62 c16 -5 15 -9 -8 -40 -29 -38 -24 -40 -70 30 l-18 29&#xA;39 -7 c22 -4 48 -9 57 -12z"/>
    <path d="M4416 4074 c-65 -12 -121 -25 -123 -28 -3 -3 3 -16 13 -28 16 -20 25&#xA;-23 51 -17 31 6 35 3 69 -44 36 -50 36 -50 20 -84 -15 -31 -15 -36 1 -59 21&#xA;-32 23 -30 108 118 66 115 67 118 51 143 -20 31 -33 31 -190 -1z m106 -79&#xA;c-15 -25 -29 -45 -32 -45 -3 0 -15 16 -27 35 l-22 34 42 9 c67 16 68 15 39&#xA;-33z"/>
    <path d="M4598 3818 l-117 -61 50 -99 c27 -54 53 -98 57 -98 4 0 13 4 20 9 11&#xA;6 6 23 -22 79 l-36 71 100 52 c55 29 100 56 100 61 0 14 -20 48 -28 48 -4 0&#xA;-60 -28 -124 -62z"/>
    <path d="M480 3743 c-36 -19 -54 -44 -94 -134 l-25 -57 117 -52 c64 -29 122&#xA;-54 128 -57 16 -6 74 140 74 185 0 90 -118 157 -200 115z m111 -76 c25 -16 35&#xA;-31 37 -54 3 -28 -21 -93 -33 -93 -8 0 -150 63 -158 71 -8 6 14 59 35 87 17&#xA;20 82 14 119 -11z"/>
    <path d="M2040 3601 c-19 -5 -26 -15 -28 -37 -6 -61 -26 -59 615 -59 567 0&#xA;585 1 599 19 18 25 18 37 0 62 -14 18 -33 19 -588 21 -315 1 -584 -2 -598 -6z"/>
    <path d="M1467 3549 c-4 -26 -12 -114 -16 -195 -9 -164 -3 -138 -198 -864 -52&#xA;-195 -95 -374 -95 -396 0 -60 26 -102 75 -125 37 -16 67 -19 247 -19 232 0&#xA;272 10 310 72 37 61 29 108 -95 548 -116 411 -159 612 -171 806 -11 166 -20&#xA;175 -28 29 -8 -144 3 -261 35 -390 12 -44 61 -255 110 -470 88 -386 89 -390&#xA;70 -406 -11 -9 -40 -20 -63 -23 -43 -7 -146 8 -160 22 -4 4 -9 334 -10 732 -2&#xA;400 -7 704 -11 679z m-37 -991 c-24 -449 -21 -438 -99 -438 -68 0 -81 7 -81&#xA;41 0 29 174 810 187 839 15 33 13 -64 -7 -442z"/>
    <path d="M3768 2869 l-3 -711 -24 -19 c-19 -15 -39 -19 -107 -19 -76 0 -85 2&#xA;-98 23 -13 19 -13 31 -1 87 33 156 126 557 159 685 49 198 59 290 49 475 -4&#xA;85 -9 139 -10 120 -26 -356 -40 -446 -108 -675 -73 -244 -185 -687 -185 -731&#xA;0 -56 20 -95 62 -126 32 -23 38 -23 270 -23 271 0 276 1 313 89 18 44 18 50 3&#xA;104 -8 31 -41 152 -72 267 -32 116 -80 293 -108 395 -72 260 -97 395 -103 540&#xA;-8 166 -15 230 -25 230 -6 0 -11 -301 -12 -711z m146 -309 c48 -206 88 -382&#xA;90 -391 8 -36 -12 -49 -79 -49 -86 0 -95 12 -95 140 0 52 -5 183 -11 290 -8&#xA;161 -5 400 6 388 2 -2 42 -172 89 -378z"/>
    <path d="M2895 3474 c-211 -11 -327 -11 -531 -3 -143 7 -312 10 -375 7 -100&#xA;-4 -121 -8 -171 -33 -176 -87 -261 -288 -189 -450 58 -131 224 -219 350 -185&#xA;58 15 132 86 161 152 29 69 23 138 -19 213 -17 30 -31 57 -31 60 0 8 191 4&#xA;240 -5 36 -7 23 -8 -60 -7 l-105 2 -3 -27 c-5 -45 29 -59 162 -65 l116 -6 0&#xA;-1037 c0 -1127 2 -1081 -55 -1156 -13 -17 -43 -41 -67 -53 l-43 -21 359 0 358&#xA;0 -48 33 c-36 23 -57 48 -79 91 l-30 60 -3 1041 -2 1042 95 5 c72 4 106 11&#xA;143 29 l48 24 -13 -35 c-6 -19 -12 -64 -13 -101 0 -55 4 -72 29 -110 101 -161&#xA;285 -180 430 -44 67 63 95 128 95 225 0 64 -5 85 -31 141 -52 106 -130 174&#xA;-234 202 -81 23 -187 25 -484 11z m497 -107 c102 -50 168 -146 168 -247 0 -72&#xA;-26 -126 -83 -177 -59 -51 -118 -69 -175 -53 -80 21 -146 118 -127 187 l8 28&#xA;12 -41 c28 -90 66 -120 143 -111 113 13 165 130 102 231 -35 57 -89 80 -176&#xA;73 l-72 -5 14 26 c22 42 18 59 -17 66 -17 3 -282 6 -588 6 -567 0 -581 -1&#xA;-581 -36 0 -7 11 -26 25 -43 l26 -30 -33 10 c-61 17 -142 11 -179 -14 -51 -34&#xA;-79 -82 -79 -136 0 -117 107 -185 210 -133 39 19 58 60 60 127 2 59 18 15 19&#xA;-52 1 -47 -3 -57 -35 -92 -49 -55 -107 -76 -165 -61 -99 27 -189 134 -189 226&#xA;0 70 65 184 131 230 80 55 57 54 819 51 l705 -2 57 -28z m-246 -152 c-12 -9&#xA;-24 -11 -30 -6 -6 5 -22 11 -36 14 -14 2 0 5 30 5 50 1 53 0 36 -13z"/>
    <path d="M4741 3453 c-97 -48 -95 -208 3 -257 21 -10 41 -15 46 -10 14 15 -1&#xA;64 -20 64 -26 0 -53 37 -53 72 0 61 95 109 148 74 41 -27 53 -62 32 -97 -13&#xA;-24 -14 -34 -5 -54 14 -30 20 -31 44 -4 14 15 19 36 19 73 -2 122 -108 191&#xA;-214 139z"/>
    <path d="M325 3448 c-12 -37 -55 -194 -55 -203 0 -8 211 -74 254 -79 5 -1 22&#xA;42 37 94 44 148 43 140 16 140 -25 0 -28 -6 -57 -117 -11 -45 -21 -50 -64 -34&#xA;l-24 10 20 66 c11 37 17 73 14 81 -8 20 -34 17 -40 -3 -3 -10 -12 -44 -21 -76&#xA;-16 -56 -18 -58 -43 -52 -15 4 -28 8 -30 10 -2 2 6 37 18 79 11 42 18 81 15&#xA;86 -9 14 -35 12 -40 -2z"/>
    <path d="M271 3114 c-36 -30 -55 -90 -46 -145 19 -112 176 -155 249 -69 45 54&#xA;47 151 5 196 -29 31 -45 30 -53 -2 -5 -19 -1 -33 13 -48 48 -51 10 -126 -63&#xA;-126 -96 0 -141 79 -78 138 19 19 26 35 24 55 -4 34 -12 34 -51 1z"/>
    <path d="M4799 3117 c-44 -29 -59 -60 -59 -122 0 -124 96 -194 203 -147 56 25&#xA;81 67 80 137 0 58 -21 104 -59 134 -38 30 -119 29 -165 -2z m146 -59 c15 -14&#xA;28 -38 32 -60 5 -32 1 -41 -25 -68 -75 -75 -194 -6 -160 93 19 54 107 74 153&#xA;35z"/>
    <path d="M242 2783 c-40 -4 -43 -6 -40 -31 l3 -27 88 4 c48 2 87 1 87 -2 0 -3&#xA;-38 -34 -85 -68 -77 -57 -85 -66 -85 -96 l0 -34 138 3 137 3 3 27 3 27 -91 3&#xA;-91 3 85 63 c79 58 86 67 86 98 l0 34 -97 -2 c-54 -1 -117 -3 -141 -5z"/>
    <path d="M4768 2774 c-5 -4 -8 -17 -8 -29 0 -21 7 -23 87 -31 l86 -9 -86 -59&#xA;c-80 -55 -87 -62 -87 -93 l0 -33 141 0 140 0 -3 28 c-3 27 -4 27 -89 32 l-87&#xA;5 89 60 c80 55 88 63 89 93 l0 32 -89 0 c-48 0 -108 3 -132 6 -24 3 -47 2 -51&#xA;-2z"/>
    <path d="M395 2444 c-173 -117 -164 -108 -156 -145 l7 -33 144 -38 c79 -20&#xA;145 -36 146 -35 1 1 -1 16 -3 34 -4 26 -10 32 -38 37 -31 6 -33 9 -44 69 -10&#xA;57 -10 63 9 79 11 9 25 18 30 20 11 3 2 68 -9 67 -3 0 -42 -25 -86 -55z m14&#xA;-138 c1 -16 -4 -18 -41 -12 -62 10 -64 16 -16 47 l43 29 7 -23 c3 -12 6 -30 7&#xA;-41z"/>
    <path d="M4782 2444 c-32 -22 -51 -65 -53 -121 -3 -66 8 -93 43 -107 61 -26&#xA;92 -3 134 98 14 37 26 51 40 51 32 0 31 -58 -1 -91 -33 -33 -40 -81 -10 -76&#xA;59 10 100 117 71 186 -10 24 -23 37 -41 42 -45 11 -73 -10 -108 -83 -34 -72&#xA;-58 -88 -77 -53 -17 32 -2 80 31 99 21 11 29 24 29 44 0 32 -23 36 -58 11z"/>
    <path d="M270 2135 c0 -5 3 -20 6 -31 5 -20 15 -23 117 -30 l112 -9 -88 -69&#xA;c-74 -57 -87 -72 -81 -90 3 -11 10 -25 14 -30 5 -5 58 31 119 80 104 83 110&#xA;91 106 119 -3 16 -9 32 -13 36 -13 13 -292 36 -292 24z"/>
    <path d="M4711 2134 c-51 -36 -78 -155 -46 -202 18 -25 211 -91 224 -76 5 5&#xA;12 18 15 30 6 19 -1 23 -71 44 -112 33 -133 45 -133 78 0 40 26 72 59 72 15 0&#xA;61 -11 101 -25 40 -14 77 -25 81 -25 4 0 12 13 17 29 l10 28 -101 32 c-117 36&#xA;-124 37 -156 15z"/>
    <path d="M528 1880 c-70 -21 -118 -72 -118 -125 0 -25 53 -162 69 -178 7 -7&#xA;224 85 244 103 12 11 -55 150 -84 176 -28 26 -74 36 -111 24z m109 -99 c13&#xA;-19 23 -40 23 -48 0 -12 -136 -83 -160 -83 -14 0 -42 87 -35 109 9 29 72 61&#xA;115 58 27 -1 39 -10 57 -36z"/>
    <path d="M4554 1775 c-24 -52 -44 -99 -44 -104 0 -8 30 -25 35 -19 2 2 17 32&#xA;35 68 18 36 34 66 35 68 2 2 47 -17 100 -42 54 -25 101 -46 105 -46 4 0 12 11&#xA;18 25 11 24 9 26 -58 60 -39 19 -95 46 -126 60 l-56 25 -44 -95z"/>
    <path d="M726 1628 c-8 -13 -44 -70 -80 -127 l-65 -105 20 -28 c15 -20 27 -27&#xA;42 -23 12 2 69 11 127 20 163 25 153 21 134 51 -13 19 -24 25 -48 23 -41 -4&#xA;-49 2 -81 57 -27 46 -27 48 -10 76 15 27 15 31 1 53 -20 31 -22 31 -40 3z m18&#xA;-169 c10 -17 16 -32 14 -35 -3 -2 -26 -7 -53 -11 -52 -7 -52 -7 -11 50 11 15&#xA;22 27 26 27 3 0 14 -14 24 -31z"/>
    <path d="M4446 1575 c-9 -13 -16 -26 -16 -28 0 -3 43 -30 95 -61 52 -31 95&#xA;-60 95 -64 0 -4 -9 -22 -21 -41 -20 -32 -18 -46 8 -53 7 -2 41 44 77 102 58&#xA;94 62 105 48 117 -18 13 -18 13 -62 -47 -15 -20 -17 -19 -105 36 -49 31 -93&#xA;58 -96 60 -4 2 -14 -7 -23 -21z"/>
    <path d="M4377 1462 c-20 -22 -21 -41 -2 -66 12 -16 10 -24 -27 -72 -41 -55&#xA;-44 -56 -93 -37 -11 4 -62 -44 -54 -50 2 -2 69 -20 148 -40 l144 -35 18 21&#xA;c10 12 18 28 19 34 0 12 -128 263 -134 263 -2 0 -10 -8 -19 -18z m62 -183 c13&#xA;-22 21 -42 19 -45 -3 -2 -20 1 -39 7 -19 6 -40 13 -47 15 -10 3 -8 11 8 34 12&#xA;16 25 30 29 30 4 0 18 -18 30 -41z"/>
    <path d="M4152 1198 c-20 -20 -14 -31 43 -88 30 -30 55 -57 55 -60 0 -4 -48 4&#xA;-106 16 l-105 22 -25 -21 -25 -22 97 -103 c97 -103 97 -103 117 -83 20 19 20&#xA;20 -36 83 -31 35 -53 64 -47 66 5 2 53 -6 106 -18 91 -19 98 -20 115 -4 11 10&#xA;19 21 19 26 0 14 -173 198 -185 198 -6 0 -16 -5 -23 -12z"/>
    <path d="M3853 942 l-21 -17 64 -89 c35 -49 64 -92 64 -96 0 -4 -16 -18 -35&#xA;-31 -39 -27 -41 -31 -20 -49 12 -10 32 0 115 59 89 64 99 74 90 92 -13 24 -9&#xA;24 -50 -6 -19 -14 -37 -25 -40 -25 -3 0 -35 41 -69 90 -35 50 -67 90 -70 90&#xA;-3 0 -16 -8 -28 -18z"/>
    <path d="M3633 811 c-90 -42 -120 -109 -72 -160 23 -25 23 -25 162 -5 39 5 47&#xA;4 47 -9 0 -19 -46 -57 -69 -57 -10 0 -22 5 -28 11 -8 8 -18 6 -38 -7 l-27 -18&#xA;22 -18 c28 -23 64 -23 116 1 77 35 105 100 63 142 -19 19 -28 21 -78 14 -99&#xA;-13 -125 -12 -129 7 -8 40 84 78 115 47 8 -8 18 -6 38 7 26 17 26 18 8 36 -29&#xA;28 -81 32 -130 9z"/>
    <path d="M2275 582 c-29 -46 -31 -47 -88 -50 l-58 -3 37 -45 37 -45 -12 -50&#xA;c-7 -28 -11 -52 -8 -55 2 -2 25 5 51 16 l47 20 44 -30 c24 -17 47 -30 51 -30&#xA;4 0 4 25 1 55 l-5 54 46 39 46 40 -56 12 c-54 12 -57 15 -73 59 -10 25 -20 49&#xA;-24 53 -3 4 -19 -14 -36 -40z"/>
  </g>
</svg>