<svg width="490" height="123" viewBox="0 0 490 123" fill="none" xmlns="http://www.w3.org/2000/svg">
<path d="M172.89 38.69C173.84 38.13 174.71 37.5 175.49 36.8C178.9 33.74 180.6 29.79 180.6 24.94C180.6 21.43 179.75 18.33 178.05 15.62C176.35 12.91 173.96 10.78 170.91 9.21C167.85 7.65 164.27 6.87 160.17 6.87H128V74.95H159.04C163.71 74.95 167.79 74.11 171.29 72.42C174.79 70.73 177.52 68.37 179.48 65.34C181.44 62.31 182.41 58.82 182.41 54.87C182.41 49.39 180.52 44.89 176.73 41.39C175.61 40.35 174.32 39.46 172.9 38.69H172.89ZM154.86 20.64C156.88 20.64 158.55 21.15 159.88 22.17C161.2 23.19 161.87 24.78 161.87 26.95C161.87 29.12 161.21 30.71 159.88 31.73C158.55 32.75 156.88 33.26 154.86 33.26H146.53V20.64H154.86ZM161.49 59.22C160.04 60.53 158.11 61.18 155.72 61.18H146.54V46.45H155.72C157.36 46.45 158.76 46.74 159.93 47.31C161.1 47.88 162.01 48.73 162.67 49.84C163.33 50.96 163.66 52.28 163.66 53.81C163.66 56.11 162.93 57.91 161.48 59.21L161.49 59.22Z" fill="#373B44"/>
<path d="M207.67 27.91H189.12V74.96H207.67V27.91Z" fill="#373B44"/>
<path d="M198.39 4C195.68 4 193.42 4.94 191.63 6.82C189.83 8.7 188.93 11.01 188.93 13.75C188.93 16.49 189.83 18.8 191.63 20.68C193.43 22.56 195.68 23.5 198.39 23.5C201.1 23.5 203.44 22.56 205.2 20.68C206.97 18.8 207.85 16.49 207.85 13.75C207.85 11.01 206.97 8.7 205.2 6.82C203.43 4.94 201.16 4 198.39 4Z" fill="#3A6685"/>
<path d="M246.74 26.95C242.06 26.95 238.15 28.11 235.01 30.39V27.91H216.46V74.96H235.01V49.52C235.01 47.42 235.48 45.81 236.43 44.69C237.38 43.58 238.79 43.02 240.69 43.02C241.83 43.02 242.82 43.2 243.67 43.55C244.52 43.9 245.17 44.33 245.61 44.84L256.02 29.92C255.07 28.96 253.83 28.23 252.28 27.72C250.73 27.21 248.89 26.96 246.74 26.96V26.95Z" fill="#373B44"/>
<path d="M293.73 27.71C292.18 27.2 290.34 26.95 288.19 26.95C283.51 26.95 279.61 28.11 276.46 30.39V27.91H257.91V74.96H276.46V49.52C276.46 47.42 276.93 45.81 277.88 44.69C278.82 43.58 280.24 43.02 282.14 43.02C283.28 43.02 284.27 43.2 285.12 43.55C285.97 43.9 286.62 44.33 287.06 44.84L297.47 29.92C296.53 28.96 295.28 28.23 293.73 27.72V27.71Z" fill="#373B44"/>
<path d="M329.54 30.5C328.4 29.64 327.14 28.91 325.71 28.34C323.41 27.42 320.9 26.95 318.19 26.95C313.84 26.95 309.99 27.99 306.65 30.06C303.3 32.13 300.69 35.02 298.8 38.71C296.91 42.41 295.96 46.65 295.96 51.43C295.96 56.21 296.91 60.43 298.8 64.1C300.69 67.77 303.31 70.65 306.65 72.75C309.99 74.85 313.84 75.91 318.19 75.91C320.9 75.91 323.41 75.45 325.71 74.52C327.14 73.95 328.4 73.22 329.54 72.36V74.95H347.61V27.91H329.54V30.5ZM322.35 59.46C320.9 59.46 319.58 59.11 318.38 58.41C317.18 57.71 316.25 56.75 315.59 55.54C314.93 54.33 314.6 52.96 314.6 51.43C314.6 49.9 314.95 48.53 315.64 47.32C316.33 46.11 317.26 45.15 318.43 44.45C319.59 43.75 320.94 43.4 322.45 43.4C323.96 43.4 325.3 43.75 326.47 44.45C327.64 45.15 328.54 46.09 329.17 47.27C329.8 48.45 330.12 49.84 330.12 51.43C330.12 53.79 329.41 55.72 327.99 57.21C326.57 58.71 324.69 59.46 322.36 59.46H322.35Z" fill="#373B44"/>
<path d="M423.17 29.34C420.3 27.75 417 26.95 413.28 26.95C409.31 26.95 405.77 27.8 402.68 29.48C401.3 30.23 400.08 31.15 398.97 32.2C397.9 31.05 396.7 30.06 395.34 29.24C392.78 27.71 389.93 26.94 386.78 26.94C383.19 26.94 379.97 27.67 377.13 29.14C376.4 29.52 375.7 29.95 375.05 30.41V27.9H356.5V74.95H375.05V47.99C375.05 46.91 375.25 45.98 375.67 45.22C376.08 44.46 376.68 43.87 377.47 43.45C378.26 43.03 379.16 42.83 380.17 42.83C381.62 42.83 382.82 43.29 383.77 44.22C384.72 45.15 385.19 46.4 385.19 48V74.96H403.74V48C403.74 46.92 403.94 45.99 404.36 45.23C404.77 44.47 405.37 43.88 406.16 43.46C406.95 43.04 407.85 42.84 408.86 42.84C410.31 42.84 411.51 43.3 412.46 44.23C413.41 45.16 413.88 46.41 413.88 48.01V74.97H432.43V47.05C432.43 42.84 431.61 39.24 429.97 36.24C428.33 33.24 426.07 30.95 423.21 29.35L423.17 29.34Z" fill="#373B44"/>
<path d="M471 27.91V30.5C469.86 29.64 468.6 28.91 467.17 28.34C464.87 27.42 462.36 26.95 459.65 26.95C455.3 26.95 451.45 27.99 448.11 30.06C444.76 32.13 442.15 35.02 440.26 38.71C438.37 42.41 437.42 46.65 437.42 51.43C437.42 56.21 438.37 60.43 440.26 64.1C442.15 67.77 444.77 70.65 448.11 72.75C451.45 74.85 455.3 75.91 459.65 75.91C462.36 75.91 464.87 75.45 467.17 74.52C468.6 73.95 469.86 73.22 471 72.36V74.95H489.07V27.91H471ZM463.81 59.46C462.36 59.46 461.04 59.11 459.84 58.41C458.64 57.71 457.71 56.75 457.05 55.54C456.39 54.33 456.06 52.96 456.06 51.43C456.06 49.9 456.41 48.53 457.1 47.32C457.79 46.11 458.72 45.15 459.89 44.45C461.05 43.75 462.4 43.4 463.91 43.4C465.42 43.4 466.76 43.75 467.93 44.45C469.1 45.15 470 46.09 470.63 47.27C471.26 48.45 471.58 49.84 471.58 51.43C471.58 53.79 470.87 55.72 469.45 57.21C468.03 58.71 466.15 59.46 463.82 59.46H463.81Z" fill="#373B44"/>
<path d="M146.09 113.25C144.69 113.86 143.17 114.16 141.54 114.16C139.43 114.16 137.54 113.65 135.85 112.62C134.16 111.59 132.83 110.2 131.84 108.44C130.86 106.68 130.37 104.68 130.37 102.44C130.37 100.2 130.86 98.27 131.84 96.55C132.82 94.82 134.16 93.46 135.85 92.45C137.54 91.44 139.44 90.94 141.54 90.94C143.14 90.94 144.63 91.24 146.01 91.85C147.39 92.45 148.57 93.29 149.55 94.35L150.69 93.19C149.56 91.98 148.21 91.03 146.63 90.35C145.05 89.67 143.35 89.33 141.54 89.33C139.11 89.33 136.92 89.91 134.97 91.06C133.03 92.22 131.48 93.79 130.34 95.77C129.2 97.75 128.62 99.97 128.62 102.43C128.62 104.89 129.19 107.18 130.34 109.2C131.48 111.22 133.03 112.82 134.97 113.99C136.91 115.16 139.1 115.75 141.54 115.75C143.36 115.75 145.07 115.41 146.69 114.73C148.31 114.05 149.7 113.09 150.86 111.84L149.72 110.68C148.7 111.78 147.5 112.64 146.1 113.24L146.09 113.25Z" fill="#373B44"/>
<path d="M175.02 91.06C173.08 89.9 170.91 89.33 168.51 89.33C166.11 89.33 163.89 89.91 161.94 91.06C160 92.22 158.45 93.79 157.31 95.77C156.17 97.75 155.59 99.97 155.59 102.43C155.59 104.89 156.16 107.18 157.31 109.2C158.45 111.22 160 112.82 161.94 113.99C163.88 115.16 166.07 115.75 168.51 115.75C170.95 115.75 173.08 115.16 175.02 113.99C176.96 112.82 178.51 111.23 179.65 109.23C180.79 107.23 181.37 104.96 181.37 102.43C181.37 99.9 180.8 97.75 179.65 95.77C178.51 93.79 176.96 92.22 175.02 91.06ZM178.15 108.41C177.17 110.19 175.84 111.6 174.17 112.62C172.5 113.65 170.61 114.16 168.5 114.16C166.39 114.16 164.5 113.65 162.81 112.62C161.12 111.59 159.79 110.2 158.8 108.44C157.82 106.68 157.33 104.68 157.33 102.44C157.33 100.2 157.82 98.27 158.8 96.55C159.78 94.82 161.12 93.46 162.81 92.45C164.5 91.44 166.4 90.94 168.5 90.94C170.6 90.94 172.5 91.44 174.17 92.45C175.84 93.46 177.17 94.83 178.15 96.55C179.13 98.28 179.62 100.22 179.62 102.39C179.62 104.56 179.13 106.64 178.15 108.42V108.41Z" fill="#373B44"/>
<path d="M204.77 90.7C203.26 89.78 201.51 89.32 199.51 89.32C197.51 89.32 195.72 89.76 194.14 90.64C192.56 91.52 191.31 92.71 190.38 94.22C190.29 94.37 190.22 94.54 190.13 94.69V89.87H188.44V115.2H190.13V100C190.13 98.2 190.52 96.62 191.3 95.26C192.08 93.9 193.15 92.83 194.51 92.04C195.87 91.25 197.44 90.86 199.22 90.86C201.84 90.86 203.92 91.7 205.49 93.39C207.05 95.08 207.83 97.3 207.83 100.05V115.19H209.52V100.05C209.52 97.96 209.1 96.1 208.27 94.49C207.43 92.87 206.26 91.61 204.76 90.69L204.77 90.7Z" fill="#373B44"/>
<path d="M224.85 90.87C226.45 90.87 227.9 91.17 229.21 91.78C230.52 92.39 231.54 93.2 232.26 94.23L233.4 93.07C232.56 91.86 231.4 90.93 229.91 90.29C228.42 89.65 226.78 89.33 225.01 89.33C223.38 89.33 221.96 89.6 220.76 90.16C219.56 90.71 218.64 91.46 217.98 92.42C217.33 93.38 217 94.48 217 95.72C217 97.26 217.35 98.48 218.06 99.38C218.77 100.28 219.68 100.98 220.81 101.47C221.94 101.97 223.13 102.4 224.38 102.76C225.63 103.13 226.82 103.53 227.95 103.97C229.08 104.41 229.99 105.04 230.7 105.84C231.41 106.65 231.76 107.75 231.76 109.14C231.76 110.72 231.14 111.96 229.91 112.86C228.67 113.76 227.02 114.21 224.95 114.21C223.28 114.21 221.74 113.87 220.32 113.19C218.9 112.51 217.65 111.45 216.56 110.02L215.42 111.23C216.15 112.11 216.98 112.89 217.93 113.57C218.88 114.25 219.94 114.78 221.12 115.17C222.3 115.56 223.56 115.75 224.91 115.75C227.49 115.75 229.55 115.14 231.09 113.9C232.63 112.67 233.41 111.01 233.41 108.92C233.41 107.27 233.06 105.97 232.35 105.04C231.64 104.1 230.72 103.37 229.6 102.84C228.47 102.31 227.28 101.87 226.03 101.52C224.78 101.17 223.59 100.8 222.46 100.39C221.33 99.99 220.42 99.42 219.71 98.68C219 97.95 218.65 96.94 218.65 95.65C218.65 94.29 219.18 93.15 220.23 92.24C221.28 91.32 222.83 90.86 224.86 90.86L224.85 90.87Z" fill="#373B44"/>
<path d="M258.53 104.58C258.53 107.41 257.75 109.72 256.19 111.52C254.63 113.32 252.57 114.22 250.03 114.22C248.36 114.22 246.88 113.81 245.59 112.98C244.3 112.15 243.3 111.02 242.59 109.57C241.88 108.12 241.53 106.46 241.53 104.59V89.89H239.84V104.65C239.84 106.85 240.28 108.79 241.15 110.46C242.02 112.13 243.23 113.43 244.77 114.37C246.31 115.31 248.07 115.77 250.03 115.77C251.99 115.77 253.79 115.3 255.32 114.37C256.85 113.43 258.04 112.12 258.92 110.43C259.79 108.74 260.23 106.82 260.23 104.65V89.89H258.54V104.59L258.53 104.58Z" fill="#373B44"/>
<path d="M301.22 90.54C299.82 89.73 298.23 89.33 296.45 89.33C294.67 89.33 293.05 89.73 291.57 90.54C290.1 91.35 288.93 92.48 288.05 93.93C287.75 94.43 287.52 94.97 287.33 95.53C287.15 94.98 286.94 94.45 286.67 93.96C285.85 92.49 284.74 91.35 283.35 90.55C281.95 89.74 280.36 89.34 278.58 89.34C276.8 89.34 275.12 89.74 273.65 90.55C272.18 91.36 271.02 92.5 270.16 93.96C270.11 94.05 270.07 94.15 270.02 94.24V89.89H268.33V115.22H270.02V99.14C270.02 97.49 270.4 96.05 271.16 94.82C271.92 93.59 272.94 92.63 274.21 91.93C275.48 91.23 276.88 90.88 278.41 90.88C280.7 90.88 282.57 91.65 284.02 93.19C285.47 94.73 286.2 96.75 286.2 99.25V115.22H287.89V99.14C287.89 97.49 288.27 96.05 289.03 94.82C289.79 93.59 290.81 92.63 292.08 91.93C293.35 91.23 294.75 90.88 296.28 90.88C298.57 90.88 300.44 91.65 301.89 93.19C303.34 94.73 304.07 96.75 304.07 99.25V115.22H305.76V99.2C305.76 97.22 305.35 95.48 304.53 94C303.71 92.51 302.6 91.37 301.21 90.56L301.22 90.54Z" fill="#373B44"/>
<path d="M331.08 90.84C329.35 89.83 327.37 89.33 325.11 89.33C322.68 89.33 320.49 89.91 318.54 91.06C316.6 92.22 315.07 93.79 313.96 95.77C312.85 97.75 312.3 99.99 312.3 102.49C312.3 104.99 312.87 107.29 314.02 109.29C315.16 111.29 316.73 112.87 318.71 114.03C320.69 115.19 322.93 115.77 325.44 115.77C327.48 115.77 329.36 115.38 331.08 114.59C332.81 113.8 334.23 112.73 335.36 111.37L334.22 110.21C333.2 111.53 331.96 112.52 330.49 113.18C329.02 113.84 327.41 114.17 325.67 114.17C323.34 114.17 321.31 113.68 319.57 112.68C317.83 111.69 316.47 110.31 315.51 108.55C314.66 106.99 314.2 105.18 314.11 103.15H336.46C336.53 102.67 336.58 102.28 336.6 101.97C336.62 101.66 336.63 101.43 336.63 101.28C336.63 98.93 336.14 96.86 335.16 95.06C334.18 93.26 332.82 91.86 331.1 90.85L331.08 90.84ZM314.1 101.55C314.2 99.62 314.63 97.9 315.45 96.4C316.38 94.69 317.66 93.35 319.32 92.38C320.97 91.41 322.89 90.92 325.07 90.92C327.25 90.92 328.93 91.39 330.44 92.32C331.95 93.25 333.1 94.55 333.9 96.2C334.65 97.75 334.97 99.54 334.88 101.54H314.1V101.55Z" fill="#373B44"/>
<path d="M363.15 90.87C364.75 90.87 366.2 91.17 367.51 91.78C368.82 92.39 369.84 93.2 370.56 94.23L371.7 93.07C370.87 91.86 369.7 90.93 368.21 90.29C366.72 89.65 365.09 89.33 363.31 89.33C361.68 89.33 360.26 89.6 359.06 90.16C357.86 90.71 356.93 91.46 356.28 92.42C355.63 93.38 355.3 94.48 355.3 95.72C355.3 97.26 355.65 98.48 356.36 99.38C357.07 100.28 357.99 100.98 359.11 101.47C360.24 101.97 361.43 102.4 362.68 102.76C363.93 103.13 365.12 103.53 366.25 103.97C367.38 104.41 368.29 105.04 369 105.84C369.71 106.65 370.06 107.75 370.06 109.14C370.06 110.72 369.44 111.96 368.21 112.86C366.97 113.76 365.32 114.21 363.25 114.21C361.58 114.21 360.03 113.87 358.62 113.19C357.2 112.51 355.95 111.45 354.86 110.02L353.72 111.23C354.45 112.11 355.28 112.89 356.23 113.57C357.17 114.25 358.24 114.78 359.42 115.17C360.6 115.56 361.86 115.75 363.21 115.75C365.79 115.75 367.85 115.14 369.39 113.9C370.93 112.67 371.71 111.01 371.71 108.92C371.71 107.27 371.36 105.97 370.65 105.04C369.94 104.1 369.02 103.37 367.9 102.84C366.77 102.31 365.58 101.87 364.33 101.52C363.08 101.17 361.89 100.8 360.76 100.39C359.63 99.99 358.72 99.42 358.01 98.68C357.3 97.95 356.95 96.94 356.95 95.65C356.95 94.29 357.48 93.15 358.53 92.24C359.59 91.32 361.13 90.86 363.16 90.86L363.15 90.87Z" fill="#373B44"/>
<path d="M411.62 90.54C410.22 89.73 408.63 89.33 406.85 89.33C405.07 89.33 403.44 89.73 401.97 90.54C400.5 91.35 399.33 92.48 398.46 93.93C398.16 94.43 397.93 94.97 397.73 95.53C397.55 94.98 397.34 94.45 397.06 93.96C396.24 92.49 395.13 91.35 393.74 90.55C392.34 89.74 390.75 89.34 388.97 89.34C387.19 89.34 385.51 89.74 384.04 90.55C382.57 91.36 381.41 92.5 380.55 93.96C380.5 94.05 380.46 94.15 380.41 94.24V89.89H378.72V115.22H380.41V99.14C380.41 97.49 380.79 96.05 381.55 94.82C382.31 93.59 383.33 92.63 384.6 91.93C385.87 91.23 387.27 90.88 388.8 90.88C391.09 90.88 392.96 91.65 394.41 93.19C395.86 94.73 396.59 96.75 396.59 99.25V115.22H398.28V99.14C398.28 97.49 398.66 96.05 399.42 94.82C400.18 93.59 401.2 92.63 402.47 91.93C403.74 91.23 405.14 90.88 406.67 90.88C408.96 90.88 410.83 91.65 412.28 93.19C413.73 94.73 414.46 96.75 414.46 99.25V115.22H416.15V99.2C416.15 97.22 415.74 95.48 414.92 94C414.1 92.51 412.99 91.37 411.6 90.56L411.62 90.54Z" fill="#373B44"/>
<path d="M446.03 96.03C445.64 95.1 445.18 94.22 444.59 93.46C443.55 92.14 442.26 91.12 440.72 90.4C439.17 89.68 437.44 89.33 435.52 89.33C433.09 89.33 430.91 89.92 428.98 91.09C427.05 92.27 425.53 93.85 424.4 95.85C423.27 97.85 422.71 100.1 422.71 102.59C422.71 105.08 423.27 107.33 424.4 109.31C425.53 111.29 427.06 112.86 429 114.02C430.94 115.18 433.15 115.76 435.62 115.76C437.51 115.76 439.21 115.4 440.72 114.69C442.23 113.97 443.5 112.95 444.53 111.61C445.15 110.81 445.62 109.9 446.03 108.92V115.22H447.72V89.89H446.03V96.04V96.03ZM443.3 111C441.45 113.11 438.96 114.17 435.84 114.17C433.66 114.17 431.71 113.67 429.98 112.66C428.25 111.65 426.9 110.27 425.92 108.53C424.94 106.79 424.45 104.8 424.45 102.56C424.45 100.32 424.94 98.33 425.92 96.59C426.9 94.85 428.24 93.47 429.92 92.46C431.61 91.45 433.54 90.95 435.72 90.95C437.9 90.95 439.61 91.44 441.17 92.41C442.73 93.38 443.94 94.74 444.79 96.48C445.64 98.22 446.07 100.27 446.07 102.62C446.07 106.11 445.14 108.91 443.29 111.02L443.3 111Z" fill="#373B44"/>
<path d="M465.86 89.33C463.32 89.33 461.2 90.2 459.51 91.95C458.94 92.54 458.5 93.25 458.12 94.01V89.89H456.43V115.22H458.12V99.75C458.12 96.96 458.81 94.8 460.19 93.28C461.57 91.76 463.37 90.99 465.59 90.99C466.75 90.99 467.78 91.17 468.67 91.54C469.56 91.91 470.39 92.51 471.15 93.36L472.29 92.09C471.38 91.14 470.39 90.44 469.32 90C468.25 89.56 467.1 89.34 465.86 89.34V89.33Z" fill="#373B44"/>
<path d="M482.48 89.88V79.08H480.8V89.88H474.15V91.37H480.8V115.21H482.48V91.37H489.08V89.88H482.48Z" fill="#373B44"/>
<path d="M43.93 0C62.4 0 77.37 14.97 77.37 33.44V34.14C77.37 39.1 75.32 45.57 73.44 48.36C70.76 48.03 68.74 47.9 67.71 47.9H20.84C19.3 48.02 13.96 48.25 9.01001 44.64C2.03001 39.56 1.79003 31.22 1.78003 30.25V15.6C1.78003 6.99 8.76 0.01 17.37 0.01H43.93V0Z" fill="#294C60"/>
<g filter="url(#filter0_d_440_3)">
<path d="M103.25 83.04V84.97C103.25 105.62 86.51 122.36 65.86 122.36H16.06C8.3 122.36 2 116.07 2 108.31V30C2.01 30.97 2.25 39.31 9.22 44.38C14.17 47.99 19.49 47.76 21.04 47.64H67.84C68.87 47.64 69.88 47.68 70.88 47.77C89.01 49.31 103.24 64.52 103.24 83.04H103.25Z" fill="#3A6685"/>
</g>
<path d="M2 30C2.72404 36.778 4.99673 47.8638 13.3634 56.8209C19.9804 63.9102 27.985 66.782 43.7128 72.2346C63.5134 79.103 68.8029 77.8076 78.5774 83.8827C88.8146 90.249 94.8181 99.0052 98.1567 105C99.8261 102.239 101.978 97.9408 103.124 92.3477C103.758 89.265 106.171 76.5524 98.6797 64.4223C93.0985 55.395 84.9832 51.4788 82.4289 50.2838C73.7606 46.2472 67.566 47.2915 46.4883 47.7032C40.1329 47.8237 30.308 47.9341 18.0496 47.7032C16.0886 47.3316 12.4885 46.3476 9.06946 43.5058C3.13634 38.5654 2.18101 31.6769 2 30Z" fill="url(#paint0_linear_440_3)"/>
<defs>
<filter id="filter0_d_440_3" x="0.4" y="27.4" width="104.45" height="95.56" filterUnits="userSpaceOnUse" color-interpolation-filters="sRGB">
<feFlood flood-opacity="0" result="BackgroundImageFix"/>
<feColorMatrix in="SourceAlpha" type="matrix" values="0 0 0 0 0 0 0 0 0 0 0 0 0 0 0 0 0 0 127 0" result="hardAlpha"/>
<feOffset dy="-1"/>
<feGaussianBlur stdDeviation="0.8"/>
<feColorMatrix type="matrix" values="0 0 0 0 0.219608 0 0 0 0 0.219608 0 0 0 0 0.219608 0 0 0 0.75 0"/>
<feBlend mode="normal" in2="BackgroundImageFix" result="effect1_dropShadow_440_3"/>
<feBlend mode="normal" in="SourceGraphic" in2="effect1_dropShadow_440_3" result="shape"/>
</filter>
<linearGradient id="paint0_linear_440_3" x1="2" y1="67.5017" x2="104" y2="67.5017" gradientUnits="userSpaceOnUse">
<stop offset="0.05" stop-color="#A37E52"/>
<stop offset="0.09" stop-color="#AC8A5D"/>
<stop offset="0.22" stop-color="#C9B181"/>
<stop offset="0.34" stop-color="#DECE9B"/>
<stop offset="0.44" stop-color="#EBDFAB"/>
<stop offset="0.52" stop-color="#F0E6B1"/>
<stop offset="0.64" stop-color="#E7D8A3"/>
<stop offset="0.85" stop-color="#D1B57F"/>
<stop offset="1" stop-color="#C09962"/>
</linearGradient>
</defs>
</svg>
