<?xml version="1.0" encoding="UTF-8"?>
<svg id="Halfpage_Banner" data-name="Halfpage Banner" xmlns="http://www.w3.org/2000/svg" viewBox="0 0 831.42 244.28">
  <defs>
    <style>
      .cls-1 {
        fill: #5b3f55;
      }

      .cls-2 {
        fill: #ff5d6b;
      }

      .cls-3 {
        fill: #a6d668;
      }

      .cls-4 {
        fill: #77d6d5;
      }
    </style>
  </defs>
  <path class="cls-3" d="M.08,41.33C3.15,8,45.59-5.04,67.73,19.94c13.25,14.95,5.98,27.96,13.85,43.04,5.63,10.8,16.17,18.2,28.18,20.25.64.11,4.22-.09,4.2.65-19.38.75-35.05,16.37-36.75,35.5-1.03,11.59-.86,17.34-8.5,27.01C47.63,173.11,3.2,159.84.08,126.04v-8.07c.74-1.43.63-3.29,1-4.85,3.66-15.39,17.17-27.57,32.93-29.23-2.63-.85-5.36-1.23-7.99-2.11-11.69-3.92-21.3-14.02-24.52-25.93-.58-2.15-.67-4.37-1.42-6.45.17-2.61-.24-5.49,0-8.07Z"/>
  <path class="cls-4" d="M42.48,244.23c-38.3-3.26-49.16-54.6-15.21-72.68,8.9-4.74,14.6-3.48,23.84-4.83,18.07-2.62,31.69-18.17,32.77-36.25,1.28,20.23,16.27,34.93,36.33,36.73,8.97.8,13.26.4,21.49,5.16,32.75,18.92,20.82,68.78-16.83,71.87h-5.25l-8.57-1.73c-14.7-4.51-25.99-17.9-27.17-33.37-1.64,16.3-13.7,30.39-29.75,34.03-1.97.45-4.12.43-5.99,1.07-1.85-.11-3.83.16-5.65,0Z"/>
  <path class="cls-2" d="M149.36,10.81c4.73,4.59,8.83,12.03,10.44,18.41l1,4.84c3.32-28.67,36.14-43.63,60.31-27.36,24.85,16.74,21.11,55.51-6.32,67.36-9.53,4.12-18.32,2.03-27.65,5.06-15.56,5.06-26.15,20.11-26.34,36.42l-.99-7.68c-3.75-17.15-17.68-29.07-35.14-30.65-1.68-.15-3.56.17-5.26.01-33.54-3.11-48.04-43.04-23.84-66.57,14.59-14.18,39.2-14.01,53.78.16Z"/>
  <path class="cls-1" d="M210.08,160.33l10.31,2.81c29.77,12.06,32.69,53.92,4.24,69.6-24.78,13.66-54.81-2.78-57.37-30.65-.15-1.68.18-3.56.01-5.26-2.01-20.83-17.38-35.5-38.37-36.31,18.89-.38,35.11-13.94,37.91-32.73.91-6.1.2-11.02,2.1-17.27,8.71-28.63,46.65-36.42,66.2-13.73,20.3,23.56,5.74,60.63-25.03,63.53Z"/>
  <polygon class="cls-1" points="330.43 63.51 330.43 91.35 361.93 91.35 361.93 63.51 381.72 63.51 381.72 137.33 361.93 137.33 361.93 107.89 330.43 107.89 330.43 137.33 310.64 137.33 310.64 63.51 330.43 63.51"/>
  <path class="cls-1" d="M613.94,66.34v15.33c-15.75-5.85-40.71-2.48-40.71,18.76,0,21.25,25.88,24.62,41.52,18.76v15.73c-16.01,4.46-34.82,5.94-48.65-4.85-17.5-13.65-17.73-43.94-1.21-58.47,12.99-11.42,33.6-10.64,49.06-5.25Z"/>
  <path class="cls-1" d="M673.31,137.74c-3.05.16-6.07-.17-9.03-.86-1.65-.38-5.83-2.3-6.85-2.25s-4.03,1.67-5.52,2.1c-12.64,3.65-29.85,2.05-31.09-14.12-1.24-16.17,12.76-20.77,26.44-19.55.81.07,7.06,1.79,7.08,1.4-.41-9.29-10.83-8.11-17.57-7.45-3.87.38-7.71,1.25-11.51,2.01v-13.92c1.77-1.08,4.37-1.58,6.46-2.02,12.05-2.52,33.04-3.79,39.65,9.21.42.82,1.95,5.08,1.95,5.72v39.73ZM654.33,116.36c-3.91-1.16-13.54-2.39-13.52,3.83.02,5.61,9.95,4.49,13.52,3.43v-7.26Z"/>
  <path class="cls-1" d="M778.71,116.76h-34.73c.64,5.11,5.98,6.18,10.3,6.45,6.86.42,14.53-1.4,21.2-2.82v13.92c-8.08,3.49-18.48,4.43-27.28,3.85-20.55-1.34-28.48-20.64-22.58-38.73,7.81-23.98,44.66-23.92,52.17-.51,1.86,5.79,1.68,11.87.92,17.84ZM759.33,104.66c-.41-11.45-15.02-11.39-15.35,0h15.35Z"/>
  <path class="cls-1" d="M412.82,82.47v32.47c0,.83.79,3.95,1.27,4.78,2.73,4.7,9.75,3.64,14.07,2.28v-39.53h18.98v55.26c-3.29.15-6.58-.14-9.77-.93-1.53-.38-5.99-2.52-6.58-2.54-.76-.03-6.01,2.36-7.56,2.77-10,2.63-23.07,1.91-27.57-9-.44-1.08-1.83-5.35-1.83-6.24v-39.33h18.98Z"/>
  <path class="cls-1" d="M508.53,82.47v32.47c0,.83.79,3.95,1.27,4.78,1.68,2.88,5.51,3.68,8.62,3.48.82-.05,5.46-1.01,5.46-1.81v-38.93h18.98v55.26c-3.29.15-6.58-.14-9.77-.93-1.38-.34-6.23-2.55-6.58-2.55-.6,0-5.33,2.09-6.67,2.47-10.2,2.88-23.8,2.63-28.46-8.68-.44-1.08-1.83-5.35-1.83-6.24v-39.33h18.98Z"/>
  <path class="cls-1" d="M827.58,98.61c-5.47-1.85-12.5-3.22-18.27-2.31-1.43.22-4.01,1.1-2.56,2.74s9.27,2.66,11.84,3.5c10.27,3.34,13.97,9.99,12.51,20.78-2.46,18.11-30.08,17.32-42.3,10.59v-13.11c4.23,1.36,18.75,4.63,22.02,2.03,2-1.59,0-2.94-1.62-3.65-7.96-3.51-21.12-1.55-22.42-14.32-1.92-18.93,11.96-24.51,28.41-23.14,1.55.13,12.37,2.18,12.37,3.38v13.51Z"/>
  <polygon class="cls-1" points="478.24 57.87 478.24 137.33 459.26 137.33 459.26 63.11 478.24 57.87"/>
  <path class="cls-1" d="M719.35,81.67v18.15c-5.34-.24-10.62.65-15.75,2.02v35.5h-18.98v-55.26h5.86c.45,0,3.79.88,4.56,1.1,1.36.38,5.8,2.51,6.35,2.5.98,0,4.92-2.06,6.35-2.51,1-.31,5.07-1.5,5.77-1.5h5.86Z"/>
  <path class="cls-1" d="M416.46,176.06l8.06-19.98,1.61-.17,7.49,20.16,7.43-19.93,2.06-.24-9.09,23.8c-.63.09-.84-.49-1.09-.93-2.97-5.24-4.81-12.94-7.22-18.6-.18-.41-.12-.98-.77-1.04-2.23,6.05-4.22,13.14-7.2,18.83-.38.72-.63,1.89-1.69,1.74l-8.89-23.8c.88,0,1.96-.28,2.36.67l6.94,19.5Z"/>
  <path class="cls-1" d="M355.47,155.49v23.8h-2.02v-18.56l-10.7,15.74-10.3-16.14v18.96h-2.02v-23.8c1.04.04,1.96,1.3,2.59,2.05,3.86,4.6,6.55,10.84,10.13,15.69,2.94-4.37,5.31-9.13,8.35-13.43.99-1.4,2.41-3.79,3.96-4.31Z"/>
  <path class="cls-1" d="M546.9,155.49c.51-.58,3.68,3.25,4.25,3.62l13.52,16.54v-19.77h2.02v23.8c-1.53-.55-3.11-2.39-4.25-3.62-4.76-5.16-8.7-11.4-13.52-16.54v19.77h-2.02v-23.8Z"/>
  <path class="cls-1" d="M390.5,155.58c17.88-2.78,18.36,22,5.46,24.01-17.89,2.78-18.38-22-5.46-24.01ZM390.9,157.2c-10.49,1.77-10.15,23.28,4.65,20.78,10.49-1.77,10.15-23.28-4.65-20.78Z"/>
  <path class="cls-1" d="M478.04,155.89c6.75,1.12,7.34,12.29.53,14.25l-3.15.67c3.59,2.11,6.5,5.42,9.29,8.47-2.76.61-3.88-1.87-5.65-3.43-2.65-2.33-5.38-4.58-8.08-6.85,2.8-.26,6.06.9,8.5-1.19,3.43-2.95,1.46-10.3-2.24-10.3h-7.88v21.78h-2.02v-23.4c3.25.38,7.6-.51,10.7,0Z"/>
  <path class="cls-1" d="M629.49,155.89c6.67,1.11,7.36,12.32.53,14.25l-3.15.67c3.59,2.11,6.5,5.42,9.29,8.47-2.76.61-3.88-1.87-5.65-3.43-2.65-2.33-5.38-4.58-8.08-6.85,2.79-.18,5.44.73,8.04-.84,4.23-2.55,1.94-10.66-1.79-10.66h-7.88v21.78h-2.02v-23.4c3.25.38,7.6-.51,10.7,0Z"/>
  <path class="cls-1" d="M761.55,155.89c6.75,1.12,7.34,12.29.53,14.25l-3.15.67c3.59,2.11,6.5,5.42,9.29,8.47-2.76.61-3.88-1.87-5.65-3.43-2.65-2.33-5.38-4.58-8.08-6.85,1.86-.35,3.32.3,5.27.02,4.27-.62,6.33-4.31,4.62-8.29-.34-.8-2.53-3.23-3.23-3.23h-8.28v21.78h-2.02v-23.4c3.25.38,7.6-.51,10.7,0Z"/>
  <polygon class="cls-1" points="727.02 155.89 727.02 166.78 741.96 166.78 741.96 155.89 743.98 155.89 743.98 179.29 741.96 179.29 741.96 168.4 727.02 168.4 727.02 179.29 725 179.29 725 155.89 727.02 155.89"/>
  <path class="cls-1" d="M594.55,155.89v17.55c0,.12.84,1.97,1.02,2.21,2.35,3.12,9.19,3.27,12.05.75.55-.48,1.88-2.39,1.88-2.96v-17.55h2.02v17.95c0,.17-.82,1.88-1.03,2.2-3.26,5.02-13.68,5.01-16.93,0-.21-.32-1.03-2.03-1.03-2.2v-17.95h2.02Z"/>
  <path class="cls-1" d="M364.76,170.41v8.87h-2.02v-23.4h10.3c.54,0,3.15,1.46,3.65,2,2.13,2.27,2.48,6.82.93,9.44-.53.9-3.26,3.09-4.18,3.09h-8.68ZM364.76,168.8h7.88c.47,0,2.39-1.5,2.8-2.04,1.49-2,1.49-5.21,0-7.21-.41-.55-2.34-2.04-2.8-2.04h-7.88v11.29Z"/>
  <path class="cls-1" d="M461.28,155.89c.06.06.08,1.61,0,1.61h-12.12v8.87h11.31c.08,0,.08,1.61,0,1.61h-11.31v9.68h11.91c.43,0,.77,1.14.61,1.61h-14.54v-23.4c1.78.39,13.64-.51,14.14,0Z"/>
  <path class="cls-1" d="M654.73,155.89c.06.06.08,1.61,0,1.61h-12.12v8.87h11.31c.08,0,.08,1.61,0,1.61h-11.31v9.68h11.91c.43,0,.77,1.14.61,1.61h-14.54v-23.4c1.78.39,13.64-.51,14.14,0Z"/>
  <path class="cls-1" d="M325.18,155.89c.06.06.08,1.61,0,1.61h-12.12v8.87h11.31c.08,0,.08,1.61,0,1.61h-11.31v9.68h11.91c.43,0,.77,1.14.61,1.61h-14.54v-23.4c1.78.39,13.64-.51,14.14,0Z"/>
  <path class="cls-1" d="M818.29,155.89c.06.06.08,1.61,0,1.61h-12.12v8.87h11.31c.08,0,.08,1.61,0,1.61h-11.31v9.68h11.91c.43,0,.77,1.14.61,1.61h-14.54v-23.4c1.78.39,13.64-.51,14.14,0Z"/>
  <path class="cls-1" d="M586.82,156.76c.22.36,0,1.08.06,1.55-2.92-1.12-9.77-2.39-11.9.41-1,1.31-1.32,3.39-.39,4.81,2.05,3.11,12.12,1.82,13.07,7.91,1.12,7.09-4.18,8.91-10.23,8.2-.72-.09-6.11-1.35-4.69-2.78.2-.2,4.13,1.11,5.05,1.2,3.86.38,8.17-.21,7.9-5.05-.36-6.43-11.08-3.57-13.23-8.99-1.48-3.74.94-7.97,4.96-8.51,1.47-.2,8.71.11,9.39,1.23Z"/>
  <path class="cls-1" d="M780.26,155.96c.96.58,6.63,18.32,8.75,20.51l8.64-20.33,2.06-.25c-2.82,8.22-6.42,16.23-10.7,23.79-.47-.37-.8-.8-1.09-1.32-3.03-5.35-6.48-13.71-8.71-19.54-.17-.44-1.04-2.81-.9-2.93.56.08,1.51-.2,1.95.07Z"/>
  <path class="cls-1" d="M685.33,163.63c6.93-.78,7.71,9.88,1,10.31s-7.34-9.6-1-10.31Z"/>
  <path class="cls-1" d="M512.48,163.63c5.09-.59,7.68,6.81,3.06,9.55-7.05,4.17-11.46-8.58-3.06-9.55Z"/>
  <path class="cls-1" d="M720.56,155.89c.06.06.08,1.61,0,1.61h-7.67v21.78h-2.02v-21.78h-7.07c-.43,0-.77-1.14-.61-1.61,2.14.48,16.76-.62,17.37,0Z"/>
  <rect class="cls-1" x="538.01" y="155.89" width="2.02" height="23.4"/>
  <rect class="cls-1" x="772.66" y="155.89" width="2.02" height="23.4"/>
</svg>