<svg width="306" height="350" viewBox="0 0 306 350" fill="none" xmlns="http://www.w3.org/2000/svg">
<path d="M14.8368 132.595C8.99683 150.525 7.27683 172.535 6.91683 177.385C5.95683 190.215 6.54683 198.915 7.83683 206.635C8.65683 211.565 9.68683 215.625 10.4968 218.465C8.77683 215.025 7.05683 211.585 5.32683 208.145C4.95683 206.895 4.46683 205.145 3.93683 203.025C1.72683 194.095 1.07683 187.125 0.716827 182.985C-0.433173 170.025 0.316827 158.195 0.886827 151.835C1.10683 149.415 3.26683 129.365 11.1368 108.935C32.0268 54.7146 82.7268 25.5046 86.7968 23.2346C113.557 8.26456 139.347 3.34456 157.557 1.81456C162.297 1.25456 168.867 0.714562 176.697 0.674562C176.697 0.674562 195.147 0.654562 214.607 5.02456C253.377 13.7246 296.877 46.1046 298.967 47.6746C297.167 49.6946 295.367 51.7046 293.567 53.7246C260.237 86.6846 226.897 119.645 193.567 152.605C192.787 153.415 191.887 154.635 191.867 156.135C191.847 158.055 193.387 159.425 193.697 159.935C210.127 187.105 231.207 213.485 248.457 240.375C249.637 242.205 252.097 245.175 251.367 247.155L152.507 149.745C152.527 149.165 152.557 148.595 152.577 148.015C184.177 116.385 215.767 84.7646 247.367 53.1346C248.477 52.4246 249.587 51.7146 250.697 51.0046C246.567 48.5646 240.847 45.4146 233.797 42.2346C222.687 37.2046 203.917 28.8446 180.577 27.5646C156.607 26.2546 131.877 27.4246 108.787 35.4746C63.6068 51.2146 29.6168 87.2146 14.8368 132.595Z" fill="#DC9D3C"/>
<path d="M305.847 254.565C304.387 260.135 301.877 268.035 297.407 276.845C283.347 304.595 261.297 318.985 251.017 325.515C198.897 358.625 140.187 348.885 123.197 345.135C97.4068 339.445 77.9868 331.385 72.5768 328.735C56.9368 321.045 44.8868 312.385 36.3468 305.355C35.9668 304.215 35.5768 303.075 35.1968 301.945L140.167 197.535C140.397 197.345 141.207 196.605 141.387 195.355C141.597 193.935 140.697 192.745 140.437 192.385C138.897 190.235 121.167 164.045 96.7268 127.985C92.6668 121.305 88.6068 114.625 84.5468 107.955C96.0168 118.765 107.497 129.575 118.967 140.395L180.357 202.395C179.977 202.865 179.597 203.335 179.217 203.805C166.277 217.035 153.127 230.315 139.747 243.635C120.497 262.825 101.327 281.565 82.2868 299.865C96.2668 308.585 118.437 319.725 147.327 324.045C168.137 327.155 184.747 325.585 191.977 324.685C213.817 321.965 229.607 315.475 234.537 313.345C264.757 300.315 283.307 280.355 294.747 267.795C299.607 262.455 303.347 257.795 305.837 254.585L305.847 254.565Z" fill="#DC9D3C"/>
</svg>
